<?xml version="1.0" standalone="no"?> <!DOCTYPE svg PUBLIC "-//W3C//DTD SVG 1.0//EN" "http://www.w3.org/TR/2001/REC-SVG-20010904/DTD/svg10.dtd" > <svg xmlns="http://www.w3.org/2000/svg" width="100%" height="100%">
<defs >
<font id="gillsansmtpro-medium" horiz-adv-x="499" ><font-face
    font-family="Gill Sans MT Pro Medium"
    units-per-em="1000"
    panose-1="2 11 6 2 2 1 4 2 2 3"
    ascent="682"
    descent="-318"
    alphabetic="0" />
<missing-glyph horiz-adv-x="500" d="M12 0V665H487V0H12ZM88 618L250 375L411 618H88ZM60 575V91L100 152Q140 212 180 272L221 333L60 575ZM440 575L278 333L440 90V575ZM411 48L250 290L88 48H411Z" />
<glyph unicode=" " glyph-name="space" horiz-adv-x="278" />
<glyph unicode="!" glyph-name="exclam" horiz-adv-x="271" d="M196 76T196 52T180 10T136 -9Q111 -9 93 7T74 51Q74 76 91 94T135 113Q163 113 179 95ZM136 691Q191 691 191 552Q191 430 157 246Q156 235 150 216T137 197Q119 197 100 326T80 548Q80 691 136 691Z" />
<glyph unicode="&quot;" glyph-name="quotedbl" horiz-adv-x="354" d="M69 429L46 563V682H146V563L123 429H69ZM231 429L208 563V682H308V563L285 429H231Z" />
<glyph unicode="#" glyph-name="numbersign" horiz-adv-x="667" d="M42 410H196L237 605H309L269 410H463L504 605H574L534 410H625V341H519L484 171H625V100H470L429 -93H358L398 100H204L164 -93H92L132 100H42V171H147L182 341H42V410ZM448 341H254L218 171H413L448
341Z" />
<glyph unicode="$" glyph-name="dollar" horiz-adv-x="542" d="M470 596V484Q408 549 321 567V369Q408 345 455 294T502 180Q502 116 461 62T321 -10V-118H239V-10Q152 -1 51 61V184Q92 147 131 124T190 94T239 81V296Q137 325 95 374T52 478Q52 539 100 592T239
655V691H321V655Q418 640 470 596ZM239 395V567Q197 563 173 537T149 484Q149 453 170 434T239 395ZM321 263V82Q404 102 404 168Q404 187 399 201T380 226T355 244T321 263Z" />
<glyph unicode="%" glyph-name="percent" horiz-adv-x="708" d="M468 297T531 297T638 253T683 145T639 38T531 -7T424 37T379 145T423 252ZM497 65T530 65T586 88T609 144T586 200T530 223T474 200T451 144T474 88ZM146 690T209 690T316 646T361 538T317 431T209
386T102 430T57 538T101 645ZM175 458T208 458T264 481T287 537T264 593T208 616T152 593T129 537T152 481ZM630 692L181 -9H106L555 692H630Z" />
<glyph unicode="&amp;" glyph-name="ampersand" horiz-adv-x="625" d="M482 160L620 0H495L416 93Q370 54 356 45Q267 -9 198 -9Q131 -9 80 36T28 151Q28 262 189 354Q112 434 112 512Q112 572 154 620T282 669Q366 669 409 622T452 518Q452 486 440 457T403 404T365
368T326 339L422 229Q465 278 495 339H593Q559 248 482 160ZM334 141L356 161L245 289L202 259Q126 207 126 155Q126 127 149 106T210 84Q273 84 334 141ZM271 405Q360 459 360 516Q360 545 338 565T283 586Q251 586 230 568T208 521Q208 496 223 468T251 426T271
405Z" />
<glyph unicode="&apos;" glyph-name="quotesingle" horiz-adv-x="187" d="M66 429L44 563V682H144V563L121 429H66Z" />
<glyph unicode="(" glyph-name="parenleft" horiz-adv-x="323" d="M311 -230H256Q192 -150 164 -107T110 -1Q64 113 64 230Q64 293 77 353T107 456T154 549T203 624T256 691H311Q285 652 272 630T235 561T199 471T177 364T167 227Q167 -39 311 -230Z" />
<glyph unicode=")" glyph-name="parenright" horiz-adv-x="323" d="M12 691H67Q113 633 132 607T174 543T213 462Q259 348 259 231Q259 168 246 108T216 5T169 -88T120 -163T67 -230H12Q38 -191 51 -169T88 -100T124 -10T146 97T156 233Q156 500 12 691Z" />
<glyph unicode="*" glyph-name="asterisk" horiz-adv-x="417" d="M237 528L321 608Q346 633 367 633Q380 633 389 623T399 598Q399 580 388 570T350 552L243 513Q245 505 245 501Q245 496 243 490L344 455Q399 434 399 404Q399 394 390 382T366 370Q344 370 310
404L237 476Q229 466 217 466L237 363Q237 362 239 345T241 317Q241 275 206 275Q190 275 182 288T174 318Q174 337 178 346Q178 348 180 354T183 363L202 466Q193 466 183 476L105 404Q69 371 50 371Q34 371 26 382T17 404Q17 417 28 428T49 444T77 455L176 490Q174
498 174 502Q174 508 176 513L63 555Q19 571 19 597Q19 612 30 623T53 634Q69 634 98 608L183 528Q192 537 202 538L183 639Q176 669 176 684Q176 726 210 726Q243 726 243 687Q243 677 237 639L217 538Q229 538 237 528Z" />
<glyph unicode="+" glyph-name="plus" horiz-adv-x="583" d="M251 105V300H55V382H251V577H333V382H528V300H333V105H251Z" />
<glyph unicode="," glyph-name="comma" horiz-adv-x="219" d="M49 -119V-101Q87 -63 90 0Q38 16 38 64Q38 90 56 109T98 129Q129 129 147 101T166 35Q166 24 164 11T152 -30T116 -82T49 -119Z" />
<glyph unicode="-" glyph-name="hyphen" horiz-adv-x="323" d="M283 269V174H40V269H283Z" />
<glyph unicode="." glyph-name="period" horiz-adv-x="219" d="M86 109T109 109T150 92T169 50T152 8T109 -9Q85 -9 68 8T50 50T68 92Z" />
<glyph unicode="/" glyph-name="slash" horiz-adv-x="281" d="M7 -9L203 691H274L78 -9H7Z" />
<glyph unicode="0" glyph-name="zero" horiz-adv-x="500" d="M254 691Q347 691 408 594T470 343Q470 184 408 88T250 -9Q153 -9 92 86T30 341Q30 506 97 598T254 691ZM250 598Q200 598 164 536T128 343Q128 201 164 143T249 84Q298 84 335 143T372 340Q372 406
362 456T338 532T306 574T274 594T250 598Z" />
<glyph unicode="1" glyph-name="one" horiz-adv-x="500" d="M300 682V0H202V682H300Z" />
<glyph unicode="2" glyph-name="two" horiz-adv-x="500" d="M466 94V0H34V7Q214 225 270 321Q319 402 319 467Q319 534 282 564T201 594Q114 594 48 502V626Q128 691 213 691Q301 691 359 632T417 481Q417 434 403 389T354 290T292 201T206 94H466Z" />
<glyph unicode="3" glyph-name="three" horiz-adv-x="500" d="M64 30V136Q140 88 214 88Q258 88 290 114T322 195Q322 243 290 275T180 307V397Q317 397 317 500Q317 540 288 571T199 602Q147 602 81 569V662Q139 691 211 691Q300 691 356 644T413 508Q413 406
326 360Q377 343 400 298T424 198Q424 105 363 48T216 -9Q139 -9 64 30Z" />
<glyph unicode="4" glyph-name="four" horiz-adv-x="500" d="M395 691V308H471V224H395V0H300V224H11V267L355 691H395ZM300 308V506L142 308H300Z" />
<glyph unicode="5" glyph-name="five" horiz-adv-x="500" d="M404 682V595H190V423Q302 429 370 368T438 210Q438 117 377 54T211 -9Q131 -9 50 33V134Q123 86 194 86Q256 86 297 121T339 210Q339 255 309 285T246 326T182 337Q122 337 101 327V682H404Z" />
<glyph unicode="6" glyph-name="six" horiz-adv-x="500" d="M317 691L376 616Q217 514 167 366Q220 394 275 394Q353 394 409 338T465 197Q465 110 405 51T260 -9Q225 -9 190 3T121 42T66 119T44 237Q44 412 172 563Q221 621 317 691ZM146 265Q142 241 142 213Q142
150 179 116T261 82Q305 82 337 112T369 194Q369 250 333 277T251 304Q202 304 146 265Z" />
<glyph unicode="7" glyph-name="seven" horiz-adv-x="500" d="M490 682L181 -9L94 29L344 589H49V682H490Z" />
<glyph unicode="8" glyph-name="eight" horiz-adv-x="500" d="M373 348Q468 292 468 187Q468 106 408 49T251 -9Q155 -9 94 49T32 188Q32 261 82 313Q99 330 129 348Q113 361 104 370T79 399T56 444T48 499Q48 581 109 636T255 691Q337 691 397 637T458 500Q458
407 373 348ZM361 496Q361 536 333 567T253 598Q207 598 176 570T144 497Q144 450 179 422T254 394Q294 394 327 422T361 496ZM369 193Q369 235 339 267T249 299Q189 299 160 266T131 192Q131 149 162 117T252 85Q309 85 339 117T369 193Z" />
<glyph unicode="9" glyph-name="nine" horiz-adv-x="500" d="M187 -9L127 63Q150 78 175 97T234 150T295 227T335 319Q287 290 226 290Q144 290 90 350T36 488Q36 568 93 629T240 691Q340 691 400 620T461 442Q461 317 383 191T187 -9ZM354 416Q359 456 359 469Q359
518 331 559T242 600Q186 600 160 564T133 488Q133 439 169 409T247 379Q298 379 354 416Z" />
<glyph unicode=":" glyph-name="colon" horiz-adv-x="219" d="M105 111Q129 111 147 94T165 51Q165 26 147 9T105 -9T64 8T46 51T64 93T105 111ZM113 458Q137 458 155 441T173 398Q173 373 155 356T113 338T72 355T54 398Q54 424 72 441T113 458Z" />
<glyph unicode=";" glyph-name="semicolon" horiz-adv-x="229" d="M120 458Q143 458 161 441T179 398Q179 373 162 356T120 338T78 355T60 398Q60 424 78 441T120 458ZM61 -119V-101Q99 -63 102 0Q50 16 50 64Q50 90 67 109T110 129Q141 129 159 101T178 35Q178
24 176 11T164 -30T128 -82T61 -119Z" />
<glyph unicode="&lt;" glyph-name="less" horiz-adv-x="583" d="M55 301V383L528 583V496L152 342L528 186V99L55 301Z" />
<glyph unicode="=" glyph-name="equal" horiz-adv-x="583" d="M528 191H55V273H528V191ZM528 409H55V491H528V409Z" />
<glyph unicode="&gt;" glyph-name="greater" horiz-adv-x="583" d="M528 381V299L55 99V186L431 340L55 496V583L528 381Z" />
<glyph unicode="?" glyph-name="question" horiz-adv-x="333" d="M65 585L129 692Q189 688 219 671Q256 650 273 615T290 546Q290 510 277 471T248 407T203 335Q139 234 139 196Q139 184 142 175Q125 182 115 189T92 217T80 268Q80 303 93 332T147 425Q188 490
188 535Q188 561 175 577T148 597T120 601Q100 601 65 585ZM214 51Q214 25 196 8T153 -9Q129 -9 112 7T94 50T112 94T154 111Q176 111 195 95T214 51Z" />
<glyph unicode="@" glyph-name="at" horiz-adv-x="1010" d="M641 418L658 494H746L675 166Q660 91 660 90Q660 75 671 67T694 58Q715 58 746 77T809 130T861 216T883 329Q883 464 782 550T534 637Q410 637 316 578T175 423T127 216Q127 132 152 66T217 -41T313
-110T426 -148T547 -159Q622 -159 684 -144T787 -103T851 -57T891 -12H979Q972 -27 960 -46T912 -100T831 -163T711 -211T548 -232Q420 -232 323 -196T169 -98T83 41T54 208Q54 269 68 333T118 465T207 587T346 674T539 708Q638 708 718 676T850 589T928 467T955
327Q955 216 901 135T782 13Q727 -23 661 -23Q631 -23 611 -16T583 6T572 31T567 58Q495 -23 417 -23Q341 -23 291 40T240 196Q240 270 274 342T367 461T494 508Q587 508 641 418ZM331 189Q331 125 362 88T435 50Q502 50 557 124T613 296Q613 363 581 399T500 436Q448
436 408 392T349 293T331 189Z" />
<glyph unicode="A" glyph-name="A" horiz-adv-x="667" d="M362 686L667 0H567L476 201H186L100 0H0L293 686H362ZM224 289H436L326 536L224 289Z" />
<glyph unicode="B" glyph-name="B" horiz-adv-x="562" d="M75 682H254Q328 682 368 667Q420 648 451 607T483 505Q483 405 379 361Q454 347 498 299T542 186Q542 147 528 115T490 63T448 32T409 14Q369 0 264 0H75V682ZM237 595H172V390H237Q302 390 329 406Q382
434 382 497Q382 526 369 549T334 582Q306 595 237 595ZM264 302H172V87H269Q345 87 370 97Q405 110 423 137T441 195Q441 261 376 288Q343 302 264 302Z" />
<glyph unicode="C" glyph-name="C" horiz-adv-x="708" d="M656 635V530Q537 598 420 598Q300 598 225 522T150 339Q150 235 221 159T421 82Q547 82 663 158V51Q553 -9 415 -9Q324 -9 252 23T136 106T71 218T48 340Q48 484 153 587T417 691Q526 691 656 635Z" />
<glyph unicode="D" glyph-name="D" horiz-adv-x="750" d="M76 682H306Q354 682 386 680T474 661T572 612Q632 567 667 497T703 341Q703 281 685 228T636 140T584 85T539 51Q501 27 451 15T371 2T292 0H76V682ZM296 595H173V88H299Q423 88 488 127Q540 160 571
218T602 346T568 476T460 570Q434 582 405 587T356 594T296 595Z" />
<glyph unicode="E" glyph-name="E" horiz-adv-x="521" d="M462 682V595H173V387H452V300H173V88H471V0H75V682H462Z" />
<glyph unicode="F" glyph-name="F" horiz-adv-x="469" d="M440 682V594H174V405H440V317H174V0H76V682H440Z" />
<glyph unicode="G" glyph-name="G" horiz-adv-x="740" d="M673 335V47Q546 -9 423 -9Q328 -9 254 22T137 105T72 215T50 335Q50 427 92 507T221 639T419 691Q484 691 538 677T659 633V533Q537 604 417 604Q310 604 231 531T152 341Q152 226 228 152T426 77Q482
77 575 107V249H444V335H673Z" />
<glyph unicode="H" glyph-name="H" horiz-adv-x="729" d="M654 682V0H555V297H173V0H75V682H173V387H555V682H654Z" />
<glyph unicode="I" glyph-name="I" horiz-adv-x="250" d="M174 682V0H76V682H174Z" />
<glyph unicode="J" glyph-name="J" horiz-adv-x="250" d="M174 682V9Q174 -63 162 -107T116 -185Q68 -231 -12 -231Q-14 -231 -44 -228L-62 -137Q24 -139 50 -111T76 20V682H174Z" />
<glyph unicode="K" glyph-name="K" horiz-adv-x="656" d="M583 682L287 359L656 0H522L174 337V0H75V682H174V370L461 682H583Z" />
<glyph unicode="L" glyph-name="L" horiz-adv-x="490" d="M173 682V89H480V0H74V682H173Z" />
<glyph unicode="M" glyph-name="M" horiz-adv-x="781" d="M709 682V0H611V531L401 267H383L171 531V0H73V682H165L392 402L618 682H709Z" />
<glyph unicode="N" glyph-name="N" horiz-adv-x="781" d="M710 682V0H626L170 525V0H78V682H157L617 153V682H710Z" />
<glyph unicode="O" glyph-name="O" horiz-adv-x="823" d="M410 691Q574 691 676 588T778 342Q778 193 674 92T405 -9Q248 -9 147 92T45 339Q45 431 86 510T213 640T410 691ZM414 599Q359 599 313 583T237 541T186 480T156 410T146 339Q146 226 223 154T411 82Q467
82 521 103T610 163Q641 197 659 247T678 343Q678 387 662 431T614 513T530 575T414 599Z" />
<glyph unicode="P" glyph-name="P" horiz-adv-x="510" d="M70 682H246Q298 682 324 680T385 665T447 624Q500 571 500 489Q500 406 443 351Q411 320 366 308T240 296H168V0H70V682ZM242 596H168V383H246Q325 383 354 401Q399 428 399 491Q399 540 369 567Q348
587 325 591T242 596Z" />
<glyph unicode="Q" glyph-name="Q" horiz-adv-x="823" d="M763 -44L665 -139Q513 -132 330 0Q215 20 130 112T44 339Q44 491 147 591T411 691Q522 691 607 642T735 514T779 343Q779 218 701 122T495 0Q631 -57 695 -57Q728 -57 763 -44ZM481 599T411 599T287 573T203
506T160 423T145 339Q145 229 221 156T411 82Q529 82 603 159T677 341Q677 383 663 425T619 508T535 573Z" />
<glyph unicode="R" glyph-name="R" horiz-adv-x="604" d="M78 682H249Q316 682 366 660Q419 638 446 593T473 492Q473 369 359 324Q388 305 416 273T460 216T511 136Q536 96 604 0H488Q480 12 420 103T348 211Q324 242 305 260T266 286T236 295T201 297H175V0H78V682ZM205
599H175V384H213Q281 384 308 394Q340 407 356 434T373 492Q373 522 359 547T321 583Q288 599 205 599Z" />
<glyph unicode="S" glyph-name="S" horiz-adv-x="458" d="M399 643V532Q325 603 239 603Q190 603 161 580T131 524Q131 483 162 456T301 366Q357 333 389 290Q426 242 426 177Q426 96 372 44T228 -9Q127 -9 44 54V178Q124 78 228 78Q269 78 301 102T334 168Q334
233 244 286Q156 339 126 360T75 408Q41 452 41 510Q41 589 96 640T242 691Q326 691 399 643Z" />
<glyph unicode="T" glyph-name="T" horiz-adv-x="604" d="M587 682V596H349V0H251V596H17V682H587Z" />
<glyph unicode="U" glyph-name="U" horiz-adv-x="708" d="M647 682V295Q647 260 646 239T638 183T614 119T570 65Q486 -9 355 -9Q276 -9 207 20T99 110Q61 170 61 295V682H159V295Q159 226 167 194T202 135Q257 78 355 78Q482 78 531 168Q550 203 550 295V682H647Z" />
<glyph unicode="V" glyph-name="V" horiz-adv-x="604" d="M604 682L316 -4H294L0 682H98L303 203L507 682H604Z" />
<glyph unicode="W" glyph-name="W" horiz-adv-x="1042" d="M1041 682L765 -4H744L521 552L296 -4H275L0 682H98L286 212L475 682H568L758 212L944 682H1041Z" />
<glyph unicode="X" glyph-name="X" horiz-adv-x="708" d="M687 682L415 353L706 0H588L356 282L121 0H2L296 353L23 682H142L356 422L569 682H687Z" />
<glyph unicode="Y" glyph-name="Y" horiz-adv-x="604" d="M604 682L352 361V0H252V361L0 682H118L301 447L486 682H604Z" />
<glyph unicode="Z" glyph-name="Z" horiz-adv-x="646" d="M628 682L192 86H628V0H12L449 596H40V682H628Z" />
<glyph unicode="[" glyph-name="bracketleft" horiz-adv-x="333" d="M319 682V601H182V-141H319V-221H86V682H319Z" />
<glyph unicode="\" glyph-name="backslash" horiz-adv-x="281" d="M203 -9L7 691H78L274 -9H203Z" />
<glyph unicode="]" glyph-name="bracketright" horiz-adv-x="333" d="M15 -221V-141H151V602H15V682H247V-221H15Z" />
<glyph unicode="^" glyph-name="asciicircum" horiz-adv-x="469" d="M116 291H26L199 682H270L443 291H354L234 583L116 291Z" />
<glyph unicode="_" glyph-name="underscore" horiz-adv-x="500" d="M-6 -75H506V-125H-6V-75Z" />
<glyph unicode="`" glyph-name="grave" horiz-adv-x="333" d="M160 653L227 506H172L60 653H160Z" />
<glyph unicode="a" glyph-name="a" horiz-adv-x="427" d="M415 80V26Q362 -9 329 -9Q272 -9 261 37Q203 -9 140 -9Q92 -9 61 23T30 101Q30 127 40 148T61 181T99 207T138 226T183 243L262 271V295Q262 374 181 374Q101 374 39 300V397Q91 458 188 458Q260 458
305 421T351 310V79Q351 56 368 56Q383 56 415 80ZM262 91V222Q191 198 156 176T120 117Q120 89 138 72T184 54Q223 54 262 91Z" />
<glyph unicode="b" glyph-name="b" horiz-adv-x="500" d="M148 682V417Q204 458 272 458Q360 458 412 392T465 229Q465 116 398 53T233 -10Q131 -10 59 25V682H148ZM148 332V89Q194 75 242 75Q291 75 333 112T375 225Q375 297 338 336T249 376Q198 376 148 332Z" />
<glyph unicode="c" glyph-name="c" horiz-adv-x="437" d="M390 427V332Q323 375 265 375Q200 375 164 330T128 225Q128 162 166 119T282 75Q334 75 400 105V17Q326 -9 269 -9Q158 -9 98 57T38 222Q38 265 50 305T88 380T158 437T260 458Q318 458 390 427Z" />
<glyph unicode="d" glyph-name="d" horiz-adv-x="510" d="M452 682V0H262Q200 0 155 23T87 84T54 158T44 232Q44 336 109 397T265 458Q316 458 362 440V682H452ZM362 75V361Q322 382 279 382Q218 382 176 342T134 221Q134 122 200 89Q228 75 294 75H362Z" />
<glyph unicode="e" glyph-name="e" horiz-adv-x="479" d="M438 131V44Q356 -9 262 -9T107 54Q40 123 40 227T99 394T250 458Q327 458 378 409T441 284Q446 254 446 217H130Q133 160 170 118T275 76Q363 76 438 131ZM132 270H358Q357 283 354 296T342 331T308 367T249
381Q197 381 163 343Q139 317 132 270Z" />
<glyph unicode="f" glyph-name="f" horiz-adv-x="260" d="M296 682V595Q276 603 255 603Q228 603 210 594T182 574T168 542T163 510T162 476V449H242V369H162V0H72V369H9V449H72V476Q72 551 95 602Q116 642 152 666T230 691Q262 691 296 682Z" />
<glyph unicode="g" glyph-name="g" horiz-adv-x="427" d="M421 449V380H329Q376 333 376 282Q376 256 364 227T334 181Q309 154 262 144T184 126T152 96Q152 78 184 65T289 38Q419 12 419 -87Q419 -154 363 -192T207 -230Q116 -230 58 -192T0 -94Q0 -44 27 -14T113
30Q68 58 68 87Q68 109 87 126T139 151V153Q90 174 64 210Q40 244 40 294Q40 366 92 407T236 449H421ZM296 293Q296 325 270 348T209 372Q172 372 146 348T120 291Q120 254 145 232T210 209Q248 209 272 232T296 293ZM333 -94Q333 -68 307 -51T249 -28T186 -22Q141
-22 113 -41T84 -90Q84 -159 209 -159Q268 -159 300 -142T333 -94Z" />
<glyph unicode="h" glyph-name="h" horiz-adv-x="500" d="M150 682V390Q207 458 288 458Q336 458 371 434T422 373Q439 331 439 256V0H350V278Q350 320 334 347Q309 388 263 388Q208 388 150 322V0H61V682H150Z" />
<glyph unicode="i" glyph-name="i" horiz-adv-x="219" d="M87 638T109 638T146 623T162 586T147 549T109 533Q85 533 71 550T57 586Q57 606 72 622ZM154 449V0H65V449H154Z" />
<glyph unicode="j" glyph-name="j" horiz-adv-x="219" d="M104 638Q124 638 140 624T157 586Q157 565 143 549T105 533T67 550T52 586Q52 606 67 622T104 638ZM151 449V-27Q151 -66 150 -87T140 -138T113 -190T61 -230L-6 -165Q23 -155 47 -123Q57 -107 59 -91T61
-32Q61 -26 61 -22V449H151Z" />
<glyph unicode="k" glyph-name="k" horiz-adv-x="479" d="M461 449L269 229L500 0H381L156 229L355 449H461ZM152 682V0H62V682H152Z" />
<glyph unicode="l" glyph-name="l" horiz-adv-x="219" d="M154 682V0H65V682H154Z" />
<glyph unicode="m" glyph-name="m" horiz-adv-x="771" d="M59 449H147V390Q185 428 215 443T281 458Q368 458 413 377Q458 422 490 440T561 458Q634 458 672 412T711 280V0H623V274Q623 327 599 354T530 382Q475 382 429 326V0H341V269Q341 322 322 352T252 383Q196
383 147 326V0H59V449Z" />
<glyph unicode="n" glyph-name="n" horiz-adv-x="500" d="M61 449H152V392Q211 458 287 458Q318 458 354 443T414 386Q439 347 439 256V0H349V256Q349 298 345 317T325 356Q300 384 258 384Q196 384 152 321V0H61V449Z" />
<glyph unicode="o" glyph-name="o" horiz-adv-x="552" d="M278 458Q380 458 448 393T516 223Q516 112 443 52T275 -9Q169 -9 103 59T36 225T102 390T278 458ZM273 378Q210 378 169 337T127 224Q127 147 173 109T277 71Q343 71 384 114T425 225Q425 302 378 340T273 378Z" />
<glyph unicode="p" glyph-name="p" horiz-adv-x="500" d="M57 449H213Q312 449 373 411Q426 377 446 325T466 224Q466 124 404 58T243 -9Q200 -9 148 11V-230H57V449ZM211 366H148V90Q189 69 234 69Q295 69 335 111T375 224Q375 264 362 293T331 335T287 356T246
365T211 366Z" />
<glyph unicode="q" glyph-name="q" horiz-adv-x="500" d="M442 449V-230H354V8Q301 -9 256 -9Q164 -9 100 54T35 220Q35 248 41 276T64 337T106 393T175 433T275 449H442ZM354 85V366H298Q220 366 191 348Q125 305 125 222Q125 155 165 111T273 66Q296 66 354 85Z" />
<glyph unicode="r" glyph-name="r" horiz-adv-x="386" d="M59 449H148V346Q164 371 173 384T201 417T240 448T282 458Q334 458 387 407L340 329Q326 343 302 358T254 373Q220 373 184 338T148 235V0H59V449Z" />
<glyph unicode="s" glyph-name="s" horiz-adv-x="385" d="M323 421V333Q246 381 193 381Q164 381 150 369T136 341Q136 321 155 307T233 259Q345 198 345 118Q345 100 338 80T314 39T266 5T191 -9Q125 -9 41 32V128Q127 69 184 69Q208 69 230 81T252 115Q252 137
237 150T183 185Q114 223 79 256T44 341Q44 391 83 424T187 458Q252 458 323 421Z" />
<glyph unicode="t" glyph-name="t" horiz-adv-x="347" d="M167 542V449H309V369H167V173Q168 130 170 117T183 91Q201 72 231 72Q280 72 332 104V21Q277 -9 217 -9Q188 -9 155 4T100 48Q78 81 78 170V369H0V378L167 542Z" />
<glyph unicode="u" glyph-name="u" horiz-adv-x="500" d="M438 0H348V57Q288 -9 212 -9Q181 -9 145 6T85 63Q60 102 60 193V449H150V193Q150 172 150 160T156 127T169 95T196 74T241 65Q303 65 348 128V449H438V0Z" />
<glyph unicode="v" glyph-name="v" horiz-adv-x="437" d="M434 449L236 -9H206L3 449H100L221 173L338 449H434Z" />
<glyph unicode="w" glyph-name="w" horiz-adv-x="719" d="M719 449L521 -9H493L360 305L229 -9H200L0 449H95L213 177L327 449H393L507 177L624 449H719Z" />
<glyph unicode="x" glyph-name="x" horiz-adv-x="500" d="M487 449L302 228L500 0H386L245 161L112 0H0L189 228L0 449H112L245 295L373 449H487Z" />
<glyph unicode="y" glyph-name="y" horiz-adv-x="437" d="M438 449L120 -230H21L174 96L0 449H101L222 196L338 449H438Z" />
<glyph unicode="z" glyph-name="z" horiz-adv-x="417" d="M405 449L167 82H405V0H11L247 366H21V449H405Z" />
<glyph unicode="{" glyph-name="braceleft" horiz-adv-x="333" d="M283 682H311V608H295Q235 608 224 583T212 439Q212 335 189 293T109 225Q131 216 147 204T174 181T193 147T204 110T209 62T211 7T212 -59Q212 -121 228 -139T295 -157H311V-232H283Q260 -232
247 -231T211 -223T175 -203T148 -163T132 -96Q130 -80 128 -3L127 74Q121 185 28 187V264Q57 265 77 276T107 302T122 344T128 392T129 448Q130 510 131 535T139 590T162 639Q178 659 202 669T241 680T283 682Z" />
<glyph unicode="|" glyph-name="bar" horiz-adv-x="260" d="M92 -232V682H168V-232H92Z" />
<glyph unicode="}" glyph-name="braceright" horiz-adv-x="333" d="M50 -232H23V-157H38Q99 -157 110 -132T122 11Q122 115 145 157T224 225Q202 234 186 246T159 270T141 303T130 340T125 389T123 443T122 510Q122 572 105 590T38 608H23V682H50Q73 682 86 681T122
673T159 653T186 613T202 546Q203 531 204 457T206 376Q212 266 305 264V187Q281 186 263 180T235 158T218 130T209 91T205 49T204 2Q204 -85 199 -122T171 -189Q156 -209 132 -219T92 -230T50 -232Z" />
<glyph unicode="~" glyph-name="asciitilde" horiz-adv-x="583" d="M42 262V361Q94 420 178 420Q232 420 311 386Q383 355 415 355Q475 355 541 421V318Q483 262 406 262Q353 262 287 292Q208 328 169 328Q142 328 116 316T78 294T42 262Z" />
</font>
</defs>
</svg>
